<svg xmlns="http://www.w3.org/2000/svg" xmlns:xlink="http://www.w3.org/1999/xlink" width="15px" height="20px" viewBox="0 0 15 20"><path fill-rule="evenodd" fill="#555555" d="M10.999939,7.6660156 C10.999939,9.2265625 9.652298,10.499512 7.9999695,10.499512 C6.3476257,10.499512 5.0,9.2265625 5.0,7.6660156 C5.0,6.105957 6.3476257,4.833008 7.9999695,4.833008 C9.652298,4.833008 10.999939,6.105957 10.999939,7.6660156 ZM13.999908,7.6660156 C13.999908,4.5341797 11.316376,1.9995117 7.9999695,1.9995117 C4.683563,1.9995117 1.9999237,4.5341797 1.9999237,7.6660156 C1.9999237,8.341797 2.0819397,9.038574 2.3866425,9.647461 C2.3866425,9.647461 6.6640625,18.213867 6.6640625,18.213867 C6.8983765,18.701172 7.4374847,18.999512 7.9999695,18.999512 C8.562439,18.999512 9.1015625,18.701172 9.347595,18.213867 C9.347595,18.213867 13.61319,9.647461 13.61319,9.647461 C13.917892,9.038574 13.999908,8.341797 13.999908,7.6660156 Z"></path></svg>