<svg xmlns="http://www.w3.org/2000/svg" xmlns:xlink="http://www.w3.org/1999/xlink" width="56px" height="43px" viewBox="0 0 56 43"><path fill-rule="evenodd" fill="#c0301c" d="M18.598572,34.724365 C18.973816,34.347412 18.973816,33.767944 18.598572,33.390625 C18.598572,33.390625 7.253723,21.999634 7.253723,21.999634 C7.253723,21.999634 18.598572,10.608276 18.598572,10.608276 C18.973816,10.231323 18.973816,9.651855 18.598572,9.274902 C18.598572,9.274902 17.155151,7.8256836 17.155151,7.8256836 C16.779907,7.4490967 16.202515,7.4490967 15.8272705,7.8256836 C15.8272705,7.8256836 2.3752441,21.332886 2.3752441,21.332886 C1.999939,21.709839 1.999939,22.289307 2.3752441,22.665894 C2.3752441,22.665894 15.8272705,36.173462 15.8272705,36.173462 C16.202515,36.550415 16.779907,36.550415 17.155151,36.173462 C17.155151,36.173462 18.598572,34.724365 18.598572,34.724365 ZM35.658997,3.796997 C35.803345,3.303833 35.51465,2.7822266 35.023865,2.6375732 C35.023865,2.6375732 33.23413,2.1445312 33.23413,2.1445312 C32.772278,1.9993896 32.252686,2.2891846 32.108276,2.7822266 C32.108276,2.7822266 21.340942,40.202637 21.340942,40.202637 C21.196533,40.694946 21.48523,41.21692 21.976013,41.36206 C21.976013,41.36206 23.765747,41.85437 23.765747,41.85437 C24.2276,41.999756 24.747253,41.709595 24.89154,41.21692 C24.89154,41.21692 35.658997,3.796997 35.658997,3.796997 ZM54.624634,22.665894 C54.99994,22.289307 54.99994,21.709839 54.624634,21.332886 C54.624634,21.332886 41.172607,7.8256836 41.172607,7.8256836 C40.797302,7.4490967 40.21997,7.4490967 39.844727,7.8256836 C39.844727,7.8256836 38.40143,9.274902 38.40143,9.274902 C38.026123,9.651855 38.026123,10.231323 38.40143,10.608276 C38.40143,10.608276 49.746155,21.999634 49.746155,21.999634 C49.746155,21.999634 38.40143,33.390625 38.40143,33.390625 C38.026123,33.767944 38.026123,34.347412 38.40143,34.724365 C38.40143,34.724365 39.844727,36.173462 39.844727,36.173462 C40.21997,36.550415 40.797302,36.550415 41.172607,36.173462 C41.172607,36.173462 54.624634,22.665894 54.624634,22.665894 Z"></path></svg>