<svg xmlns="http://www.w3.org/2000/svg" xmlns:xlink="http://www.w3.org/1999/xlink" width="18px" height="14px" viewBox="0 0 18 14"><path fill-rule="evenodd" fill="#555555" d="M15.928497,11.749512 C15.928497,11.8828125 15.803009,12.0 15.660706,12.0 C15.660706,12.0 3.3392334,12.0 3.3392334,12.0 C3.1969604,12.0 3.07135,11.8828125 3.07135,11.749512 C3.07135,11.749512 3.07135,5.7495117 3.07135,5.7495117 C3.247116,5.9370117 3.4396667,6.1088867 3.6489868,6.265625 C4.8459473,7.1245117 6.0513,7.9995117 7.2147827,8.90625 C7.8425903,9.397949 8.621063,9.999512 9.491577,9.999512 C9.491577,9.999512 9.4999695,9.999512 9.4999695,9.999512 C9.4999695,9.999512 9.508362,9.999512 9.508362,9.999512 C10.378876,9.999512 11.157272,9.397949 11.78508,8.90625 C12.948654,7.9995117 14.154007,7.1245117 15.350952,6.265625 C15.560196,6.1088867 15.752747,5.9370117 15.928497,5.7495117 C15.928497,5.7495117 15.928497,11.749512 15.928497,11.749512 ZM15.928497,3.5385742 C15.928497,4.2026367 15.242142,5.069824 14.698074,5.4682617 C13.576355,6.288574 12.454742,7.1171875 11.341431,7.944824 C10.897873,8.280762 10.094299,9.0 9.508362,9.0 C9.508362,9.0 9.4999695,9.0 9.4999695,9.0 C9.4999695,9.0 9.491577,9.0 9.491577,9.0 C8.90564,9.0 8.102081,8.280762 7.658432,7.944824 C6.545105,7.1171875 5.4234924,6.288574 4.30188,5.4682617 C3.5484772,4.913574 3.07135,4.1401367 3.07135,3.2495117 C3.07135,3.1166992 3.1969604,3.0 3.3392334,3.0 C3.3392334,3.0 15.660706,3.0 15.660706,3.0 C15.97876,3.0 15.928497,3.3432617 15.928497,3.5385742 ZM16.999954,3.2495117 C16.999954,2.5620117 16.397232,1.9995117 15.660706,1.9995117 C15.660706,1.9995117 3.3392334,1.9995117 3.3392334,1.9995117 C2.6026306,1.9995117 2.0,2.5620117 2.0,3.2495117 C2.0,3.2495117 2.0,11.749512 2.0,11.749512 C2.0,12.437012 2.6026306,12.999512 3.3392334,12.999512 C3.3392334,12.999512 15.660706,12.999512 15.660706,12.999512 C16.397232,12.999512 16.999954,12.437012 16.999954,11.749512 C16.999954,11.749512 16.999954,3.2495117 16.999954,3.2495117 Z"></path></svg>