<svg xmlns="http://www.w3.org/2000/svg" xmlns:xlink="http://www.w3.org/1999/xlink" width="15px" height="23px" viewBox="0 0 15 23"><path fill-rule="evenodd" fill="#555555" d="M9.249924,19.999512 C9.249924,20.687012 8.687439,21.249512 7.999939,21.249512 C7.312439,21.249512 6.7499695,20.687012 6.7499695,19.999512 C6.7499695,19.312012 7.312439,18.749512 7.999939,18.749512 C8.687439,18.749512 9.249924,19.312012 9.249924,19.999512 ZM12.499954,17.499512 C12.499954,17.765625 12.265533,17.999512 11.999939,17.999512 C11.999939,17.999512 3.999939,17.999512 3.999939,17.999512 C3.7343445,17.999512 3.499939,17.765625 3.499939,17.499512 C3.499939,17.499512 3.499939,6.4995117 3.499939,6.4995117 C3.499939,6.2338867 3.7343445,6.0 3.999939,6.0 C3.999939,6.0 11.999939,6.0 11.999939,6.0 C12.265533,6.0 12.499954,6.2338867 12.499954,6.4995117 C12.499954,6.4995117 12.499954,17.499512 12.499954,17.499512 ZM9.4999695,4.25 C9.4999695,4.3901367 9.3905945,4.4995117 9.249924,4.4995117 C9.249924,4.4995117 6.7499695,4.4995117 6.7499695,4.4995117 C6.6092987,4.4995117 6.4999084,4.3901367 6.4999084,4.25 C6.4999084,4.109375 6.6092987,3.9995117 6.7499695,3.9995117 C6.7499695,3.9995117 9.249924,3.9995117 9.249924,3.9995117 C9.3905945,3.9995117 9.4999695,4.109375 9.4999695,4.25 ZM13.999985,3.9995117 C13.999985,2.9057617 13.093704,1.9995117 11.999939,1.9995117 C11.999939,1.9995117 3.999939,1.9995117 3.999939,1.9995117 C2.9061737,1.9995117 2.0,2.9057617 2.0,3.9995117 C2.0,3.9995117 2.0,19.999512 2.0,19.999512 C2.0,21.09375 2.9061737,21.999512 3.999939,21.999512 C3.999939,21.999512 11.999939,21.999512 11.999939,21.999512 C13.093704,21.999512 13.999985,21.09375 13.999985,19.999512 C13.999985,19.999512 13.999985,3.9995117 13.999985,3.9995117 Z"></path></svg>