<svg xmlns="http://www.w3.org/2000/svg" xmlns:xlink="http://www.w3.org/1999/xlink" width="51px" height="51px" viewBox="0 0 51 51"><path fill-rule="evenodd" fill="#c0301c" d="M25.99414,1.8664551 C12.738403,1.8664551 2.0,12.605469 2.0,25.861084 C2.0,39.116333 12.738403,49.855347 25.99414,49.855347 C39.249756,49.855347 49.98828,39.116333 49.98828,25.861084 C49.98828,12.605469 39.249756,1.8664551 25.99414,1.8664551 ZM25.99414,5.2945557 C29.475464,5.2945557 32.769165,6.1781006 35.661377,7.704712 C35.661377,7.704712 30.466187,12.89978 30.466187,12.89978 C29.046875,12.417603 27.574097,12.14978 25.99414,12.14978 C24.440918,12.14978 22.941284,12.417603 21.521973,12.89978 C21.521973,12.89978 16.326782,7.704712 16.326782,7.704712 C19.218872,6.1781006 22.512817,5.2945557 25.99414,5.2945557 ZM7.8377686,35.5282 C6.3114014,32.635742 5.4276123,29.341919 5.4276123,25.861084 C5.4276123,22.379883 6.3114014,19.08606 7.8377686,16.193604 C7.8377686,16.193604 13.032959,21.388672 13.032959,21.388672 C12.550903,22.808105 12.283081,24.281128 12.283081,25.861084 C12.283081,27.414062 12.550903,28.913696 13.032959,30.33313 C13.032959,30.33313 7.8377686,35.5282 7.8377686,35.5282 ZM25.99414,46.427246 C22.512817,46.427246 19.218872,45.5437 16.326782,44.01709 C16.326782,44.01709 21.521973,38.82202 21.521973,38.82202 C22.941284,39.3042 24.440918,39.57202 25.99414,39.57202 C27.574097,39.57202 29.046875,39.3042 30.466187,38.82202 C30.466187,38.82202 35.661377,44.01709 35.661377,44.01709 C32.769165,45.5437 29.475464,46.427246 25.99414,46.427246 ZM25.99414,36.144043 C20.316895,36.144043 15.7109375,31.538086 15.7109375,25.861084 C15.7109375,20.183716 20.316895,15.577759 25.99414,15.577759 C31.671265,15.577759 36.277344,20.183716 36.277344,25.861084 C36.277344,31.538086 31.671265,36.144043 25.99414,36.144043 ZM38.9552,30.33313 C39.437256,28.913696 39.704956,27.414062 39.704956,25.861084 C39.704956,24.30774 39.437256,22.808105 38.9552,21.388672 C38.9552,21.388672 44.15039,16.193604 44.15039,16.193604 C45.676758,19.08606 46.560425,22.379883 46.560425,25.861084 C46.560425,29.341919 45.676758,32.635742 44.15039,35.5282 C44.15039,35.5282 38.9552,30.33313 38.9552,30.33313 Z"></path></svg>